<?xml version="1.0" encoding="utf-8"?>
<!-- Generator: Adobe Illustrator 17.0.0, SVG Export Plug-In . SVG Version: 6.00 Build 0)  -->
<!DOCTYPE svg PUBLIC "-//W3C//DTD SVG 1.1//EN" "http://www.w3.org/Graphics/SVG/1.1/DTD/svg11.dtd">
<svg version="1.1" id="Layer_1" xmlns="http://www.w3.org/2000/svg" xmlns:xlink="http://www.w3.org/1999/xlink" x="0px" y="0px"
	 width="160.5px" height="126.5px" viewBox="0 0 160.5 126.5" enable-background="new 0 0 160.5 126.5" xml:space="preserve">
<g>
	<path fill="#FFFFFF" d="M157.485,97.031c0-3.036-1.201-5.582-3.438-7.336c-1.196-0.957-2.636-1.61-4.347-1.975l3.101,0l4.683,0.176
		V34.242c0-15.845-12.892-28.737-28.737-28.737h-16.749c-4.196,0-8.254,0.892-12.059,2.648c-3.603-1.697-7.622-2.65-11.86-2.65
		H67.571v0.003H44.959v25.816L16.339,5.386H3.015v82.351h1.065v19.402h2.198c-1.997,1.364-3.26,3.639-3.26,6.324
		c0,4.317,3.306,7.573,7.689,7.573c0.459,0,0.902-0.042,1.333-0.107h8.72v-0.001h8.636l0.758-1.964l0.78,1.964h9.875
		c0.677,0.106,1.38,0.167,2.113,0.167c1.951,0,3.815-0.317,5.112-0.869l0.51-0.217c1.503,0.7,3.254,1.086,5.187,1.086
		c0.815,0,1.602-0.067,2.351-0.171l9.337,0.001v0.006h14.055c0.858,0.064,1.773,0.096,2.783,0.096c2.089,0,3.957-0.32,5.553-0.919
		v0.822H98.03v-0.001h10.512l0.757-1.962l0.779,1.962h10.468v0.001h10.221v-0.455c1.146,0.409,2.404,0.639,3.752,0.639
		c1.431,0,2.765-0.25,3.971-0.703v0.519h5.062c2.085-0.001,3.312-0.667,4.035-1.481l1.083,1.481h8.138v-19.687h-0.183
		C157.188,99.966,157.485,98.543,157.485,97.031z M54.703,87.452v0.466c-1.152-0.414-2.418-0.646-3.776-0.646
		c-1.415,0-2.743,0.257-3.949,0.72v-0.54h-3.134V87.45H32.525V59.88l30.421,27.571H54.703z M127.974,87.449h-7.143l-1.045,2.632
		c-1.798-1.764-4.332-2.809-7.27-2.809c-2.398,0-4.549,0.733-6.263,1.981c-0.156-0.122-0.31-0.246-0.479-0.357
		c-1.992-1.352-4.22-1.527-5.943-1.527c-1.18,0-2.423,0.085-3.415,0.233h-2.11c10.949-1.067,20.062-8.482,23.61-18.506h10.059
		V87.449z M114.861,41.333c0.614-2.055,0.984-4.166,1.105-6.318h12.008v6.318H114.861z"/>
	<g>
		<g>
			<g>
				
					<linearGradient id="SVGID_1_" gradientUnits="userSpaceOnUse" x1="-2019.3555" y1="-1813.3778" x2="-1967.8024" y2="-1813.3778" gradientTransform="matrix(1 0 0 1 2038 1860)">
					<stop  offset="0" style="stop-color:#00C2C0"/>
					<stop  offset="1" style="stop-color:#00AEEF"/>
				</linearGradient>
				<path fill="url(#SVGID_1_)" d="M60.589,9.776v56.749L18.644,28.513v54.956h9.611V50.25l36.633,33.201h5.146
					c0.056,0,0.107,0.007,0.163,0.009V9.776H60.589z"/>
				
					<linearGradient id="SVGID_2_" gradientUnits="userSpaceOnUse" x1="-2030.7162" y1="-1813.438" x2="-1979.1592" y2="-1813.438" gradientTransform="matrix(1 0 0 1 2038 1860)">
					<stop  offset="0" style="stop-color:#00C2C0"/>
					<stop  offset="1" style="stop-color:#00AEEF"/>
				</linearGradient>
				<polygon fill="url(#SVGID_2_)" points="16.896,83.469 16.896,24.571 58.841,62.583 58.841,9.776 49.229,9.776 49.229,40.953 
					14.692,9.655 7.284,9.655 7.284,83.469 				"/>
			</g>
			<g>
				
					<linearGradient id="SVGID_3_" gradientUnits="userSpaceOnUse" x1="-1927.683" y1="-1822.2638" x2="-1896.1436" y2="-1822.2638" gradientTransform="matrix(1 0 0 1 2038 1860)">
					<stop  offset="0" style="stop-color:#00C2C0"/>
					<stop  offset="1" style="stop-color:#00AEEF"/>
				</linearGradient>
				<path fill="url(#SVGID_3_)" d="M128.748,21.134h-16.749c-0.566,0-1.126,0.046-1.682,0.119c1.588,2.877,2.666,6.074,3.029,9.494
					h15.402c1.927,0,3.495,1.568,3.495,3.495v11.361h-19.634c1.807,2.661,3.08,5.628,3.774,8.737h25.473V34.241
					C141.857,27.014,135.977,21.134,128.748,21.134z"/>
				
					<linearGradient id="SVGID_4_" gradientUnits="userSpaceOnUse" x1="-1921.5155" y1="-1790.2311" x2="-1896.1445" y2="-1790.2311" gradientTransform="matrix(1 0 0 1 2038 1860)">
					<stop  offset="0" style="stop-color:#00C2C0"/>
					<stop  offset="1" style="stop-color:#00AEEF"/>
				</linearGradient>
				<path fill="url(#SVGID_4_)" d="M132.243,64.827v18.624h9.612V56.087h-25.146c0.183,1.222,0.279,2.465,0.279,3.714
					c0,1.72-0.176,3.399-0.504,5.025H132.243z"/>
				
					<linearGradient id="SVGID_5_" gradientUnits="userSpaceOnUse" x1="-1936.281" y1="-1813.3788" x2="-1884.7848" y2="-1813.3788" gradientTransform="matrix(1 0 0 1 2038 1860)">
					<stop  offset="0" style="stop-color:#00C2C0"/>
					<stop  offset="1" style="stop-color:#00AEEF"/>
				</linearGradient>
				<path fill="url(#SVGID_5_)" d="M128.748,19.387c8.191,0,14.856,6.663,14.856,14.856V83.45h9.23c0.132,0,0.254,0.013,0.381,0.018
					V34.243c0-13.49-10.976-24.468-24.468-24.468h-16.749c-3.598,0-7.095,0.787-10.279,2.26c3.062,1.958,5.666,4.564,7.651,7.607
					c0.861-0.154,1.738-0.254,2.628-0.254H128.748z"/>
			</g>
			<g>
				
					<linearGradient id="SVGID_6_" gradientUnits="userSpaceOnUse" x1="-1966.1593" y1="-1826.5599" x2="-1937.759" y2="-1826.5599" gradientTransform="matrix(1 0 0 1 2038 1860)">
					<stop  offset="0" style="stop-color:#00C2C0"/>
					<stop  offset="1" style="stop-color:#00AEEF"/>
				</linearGradient>
				<path fill="url(#SVGID_6_)" d="M100.241,33.44c0-6.785-5.52-12.306-12.306-12.306H71.841v9.612H88.08
					c1.486,0,2.694,1.209,2.694,2.694c0,1.486-1.209,2.694-2.694,2.694H71.841v9.612h16.094
					C94.72,45.748,100.241,40.228,100.241,33.44z"/>
				
					<linearGradient id="SVGID_7_" gradientUnits="userSpaceOnUse" x1="-1966.1621" y1="-1800.1985" x2="-1934.266" y2="-1800.1985" gradientTransform="matrix(1 0 0 1 2038 1860)">
					<stop  offset="0" style="stop-color:#00C2C0"/>
					<stop  offset="1" style="stop-color:#00AEEF"/>
				</linearGradient>
				<path fill="url(#SVGID_7_)" d="M103.734,59.801c0-6.785-5.52-12.306-12.306-12.306h-3.495H71.838v9.612h16.239h3.495
					c1.486,0,2.694,1.209,2.694,2.694c0,1.486-1.209,2.694-2.694,2.694H71.838v9.612h19.59
					C98.215,72.108,103.734,66.587,103.734,59.801z"/>
				
					<linearGradient id="SVGID_8_" gradientUnits="userSpaceOnUse" x1="-1966.1593" y1="-1813.3793" x2="-1922.7583" y2="-1813.3793" gradientTransform="matrix(1 0 0 1 2038 1860)">
					<stop  offset="0" style="stop-color:#00C2C0"/>
					<stop  offset="1" style="stop-color:#00AEEF"/>
				</linearGradient>
				<path fill="url(#SVGID_8_)" d="M109.199,44.063c1.615-3.199,2.547-6.799,2.547-10.623c0-13.049-10.618-23.667-23.667-23.667
					H71.841v9.612h16.094c7.749,0,14.055,6.304,14.055,14.055c0,5.51-3.194,10.276-7.823,12.579
					c6.444,1.278,11.318,6.968,11.318,13.783c0,7.749-6.304,14.055-14.055,14.055H71.841v9.612h19.734
					c13.051,0,23.667-10.618,23.667-23.667C115.242,53.756,112.942,48.249,109.199,44.063z"/>
			</g>
		</g>
		<g>
			<path fill="#00C2C0" d="M8.348,102.87V91.721h1.836l4.176,5.641c0.966,1.307,1.72,2.483,2.338,3.622l0.038-0.015
				c-0.154-1.49-0.194-2.846-0.194-4.581v-4.667h1.583v11.149h-1.7l-4.134-5.657c-0.908-1.24-1.778-2.514-2.433-3.721l-0.058,0.015
				c0.096,1.405,0.136,2.746,0.136,4.597v4.764C9.935,102.87,8.348,102.87,8.348,102.87z"/>
			<path fill="#00C2C0" d="M23.177,99.361l-1.352,3.508h-1.74l4.426-11.149h2.03l4.446,11.149h-1.798l-1.392-3.506h-4.619
				L23.177,99.361L23.177,99.361z M27.449,98.237l-1.276-3.208c-0.29-0.73-0.484-1.39-0.675-2.034h-0.04
				c-0.192,0.66-0.406,1.341-0.658,2.017l-1.276,3.226L27.449,98.237L27.449,98.237z"/>
			<path fill="#00C2C0" d="M33.891,92.944h-3.962v-1.225h9.645v1.225h-3.982v9.924h-1.7v-9.924H33.891z"/>
			<path fill="#00C2C0" d="M42.709,91.721v11.149h-1.682V91.721H42.709z"/>
			<path fill="#00C2C0" d="M56.782,97.18c0,3.838-2.726,5.873-6.05,5.873c-3.44,0-5.855-2.282-5.855-5.657
				c0-3.54,2.57-5.855,6.05-5.855C54.482,91.538,56.782,93.872,56.782,97.18z M46.675,97.36c0,2.382,1.507,4.517,4.155,4.517
				c2.666,0,4.173-2.101,4.173-4.631c0-2.215-1.352-4.533-4.155-4.533C48.065,92.715,46.675,94.914,46.675,97.36z"/>
			<path fill="#00C2C0" d="M58.972,102.87V91.721h1.836l4.176,5.641c0.968,1.307,1.72,2.483,2.339,3.622l0.038-0.015
				c-0.154-1.49-0.192-2.846-0.192-4.581v-4.667h1.583v11.149h-1.702l-4.135-5.657c-0.908-1.24-1.778-2.514-2.436-3.721
				l-0.058,0.015c0.096,1.405,0.136,2.746,0.136,4.597v4.764C60.558,102.87,58.972,102.87,58.972,102.87z"/>
			<path fill="#00C2C0" d="M73.804,99.361l-1.354,3.506h-1.74l4.426-11.149h2.03l4.446,11.149h-1.798l-1.392-3.506H73.804z
				 M78.076,98.237l-1.274-3.208c-0.292-0.73-0.484-1.39-0.675-2.034h-0.041c-0.194,0.66-0.406,1.341-0.656,2.017l-1.276,3.226
				L78.076,98.237L78.076,98.237z"/>
			<path fill="#00C2C0" d="M83.532,91.721h1.682v9.941h5.565v1.209h-7.247V91.721z"/>
			<path fill="#00C2C0" d="M96.756,91.871c0.734-0.132,1.894-0.232,3.074-0.232c1.682,0,2.764,0.248,3.576,0.81
				c0.675,0.431,1.082,1.091,1.082,1.968c0,1.075-0.83,2.019-2.204,2.45v0.031c1.238,0.266,2.686,1.142,2.686,2.795
				c0,0.959-0.446,1.689-1.102,2.233c-0.908,0.712-2.377,1.042-4.503,1.042c-1.16,0-2.047-0.067-2.61-0.134V91.871H96.756z
				 M98.44,96.434h1.526c1.778,0,2.821-0.794,2.821-1.869c0-1.307-1.16-1.821-2.859-1.821c-0.774,0-1.218,0.049-1.488,0.101V96.434z
				 M98.44,101.778c0.328,0.049,0.812,0.067,1.41,0.067c1.74,0,3.343-0.546,3.343-2.168c0-1.522-1.526-2.151-3.364-2.151h-1.392
				v4.251H98.44z"/>
			<path fill="#00C2C0" d="M118.371,97.18c0,3.838-2.724,5.873-6.05,5.873c-3.44,0-5.855-2.282-5.855-5.657
				c0-3.54,2.572-5.855,6.05-5.855C116.072,91.538,118.371,93.872,118.371,97.18z M108.262,97.36c0,2.382,1.507,4.517,4.155,4.517
				c2.668,0,4.176-2.101,4.176-4.631c0-2.215-1.354-4.533-4.155-4.533C109.656,92.715,108.262,94.914,108.262,97.36z"/>
			<path fill="#00C2C0" d="M122.398,99.361l-1.354,3.506h-1.74l4.426-11.149h2.03l4.446,11.149h-1.798l-1.392-3.506H122.398z
				 M126.669,98.237l-1.274-3.208c-0.292-0.73-0.484-1.39-0.675-2.034h-0.04c-0.194,0.66-0.406,1.341-0.656,2.017l-1.276,3.226
				L126.669,98.237L126.669,98.237z"/>
			<path fill="#00C2C0" d="M132.125,91.871c0.852-0.15,2.068-0.232,3.227-0.232c1.798,0,2.958,0.281,3.77,0.91
				c0.658,0.495,1.024,1.256,1.024,2.117c0,1.472-1.082,2.447-2.456,2.844v0.049c1.006,0.297,1.606,1.091,1.914,2.248
				c0.424,1.555,0.734,2.63,1.006,3.06h-1.74c-0.214-0.315-0.504-1.274-0.87-2.663c-0.388-1.539-1.082-2.117-2.61-2.168h-1.583
				v4.829h-1.682L132.125,91.871L132.125,91.871z M133.807,96.948h1.72c1.798,0,2.938-0.843,2.938-2.117
				c0-1.439-1.218-2.068-2.996-2.083c-0.812,0-1.392,0.067-1.662,0.132V96.948z"/>
			<path fill="#00C2C0" d="M142.529,91.871c1.024-0.132,2.242-0.232,3.576-0.232c2.418,0,4.138,0.48,5.276,1.39
				c1.16,0.91,1.836,2.199,1.836,4.002c0,1.821-0.658,3.308-1.874,4.332c-1.218,1.042-3.227,1.606-5.76,1.606
				c-1.2,0-2.204-0.049-3.054-0.134V91.871z M144.21,101.728c0.424,0.067,1.044,0.083,1.702,0.083c3.594,0,5.545-1.72,5.545-4.731
				c0.02-2.63-1.72-4.303-5.276-4.303c-0.87,0-1.528,0.067-1.972,0.15L144.21,101.728L144.21,101.728z"/>
			<path fill="#00C2C0" d="M14.237,113.338c0,2.242-1.59,3.429-3.531,3.429c-2.009,0-3.419-1.334-3.419-3.303
				c0-2.068,1.501-3.419,3.533-3.419C12.894,110.043,14.237,111.407,14.237,113.338z M8.335,113.446
				c0,1.392,0.881,2.636,2.427,2.636c1.557,0,2.438-1.227,2.438-2.704c0-1.294-0.792-2.648-2.427-2.648
				C9.147,110.728,8.335,112.016,8.335,113.446z"/>
			<path fill="#00C2C0" d="M15.509,110.151h4.097v0.705H16.49v2.164h2.877v0.696H16.49v2.945h-0.982
				C15.508,116.66,15.508,110.151,15.509,110.151z"/>
			<path fill="#00C2C0" d="M27.819,113.153l-1.352,3.506h-1.74l4.426-11.149h2.03l4.446,11.149h-1.798l-1.392-3.506H27.819z
				 M32.088,112.029l-1.274-3.208c-0.29-0.73-0.484-1.39-0.675-2.034h-0.04c-0.192,0.66-0.406,1.341-0.658,2.017l-1.276,3.226
				L32.088,112.029L32.088,112.029z"/>
			<path fill="#00C2C0" d="M46.361,116.298c-0.618,0.263-1.856,0.528-3.44,0.528c-3.671,0-6.435-1.986-6.435-5.641
				c0-3.488,2.764-5.855,6.803-5.855c1.624,0,2.648,0.297,3.092,0.497l-0.406,1.175c-0.638-0.266-1.545-0.464-2.628-0.464
				c-3.054,0-5.083,1.671-5.083,4.597c0,2.728,1.836,4.482,5.005,4.482c1.024,0,2.068-0.183,2.744-0.464L46.361,116.298z"/>
			<path fill="#00C2C0" d="M57.17,116.298c-0.618,0.263-1.856,0.528-3.44,0.528c-3.671,0-6.435-1.986-6.435-5.641
				c0-3.488,2.764-5.855,6.803-5.855c1.624,0,2.648,0.297,3.092,0.497l-0.406,1.175c-0.638-0.266-1.545-0.464-2.628-0.464
				c-3.054,0-5.083,1.671-5.083,4.597c0,2.728,1.836,4.482,5.005,4.482c1.024,0,2.068-0.183,2.744-0.464L57.17,116.298z"/>
			<path fill="#00C2C0" d="M59.282,105.661c0.85-0.15,2.068-0.232,3.227-0.232c1.798,0,2.958,0.281,3.77,0.91
				c0.656,0.495,1.024,1.256,1.024,2.117c0,1.472-1.082,2.447-2.456,2.844v0.049c1.004,0.297,1.604,1.091,1.914,2.248
				c0.424,1.555,0.734,2.63,1.004,3.06h-1.74c-0.212-0.315-0.504-1.274-0.87-2.663c-0.386-1.539-1.082-2.117-2.61-2.168h-1.583
				v4.829h-1.682v-10.994H59.282z M60.962,110.74h1.72c1.798,0,2.938-0.843,2.938-2.117c0-1.439-1.218-2.068-2.996-2.083
				c-0.812,0-1.392,0.067-1.662,0.132C60.962,106.672,60.962,110.74,60.962,110.74z"/>
			<path fill="#00C2C0" d="M76.431,111.433h-5.063v4.02h5.644v1.209h-7.325v-11.149h7.036v1.209h-5.353v3.524h5.063L76.431,111.433
				L76.431,111.433z"/>
			<path fill="#00C2C0" d="M79.2,105.661c1.024-0.132,2.242-0.232,3.576-0.232c2.418,0,4.138,0.48,5.278,1.39
				c1.16,0.91,1.836,2.199,1.836,4.002c0,1.821-0.658,3.308-1.874,4.332c-1.218,1.042-3.227,1.606-5.76,1.606
				c-1.2,0-2.204-0.049-3.054-0.134v-10.963H79.2z M80.881,115.52c0.424,0.067,1.044,0.083,1.702,0.083
				c3.594,0,5.545-1.72,5.545-4.731c0.02-2.63-1.72-4.303-5.276-4.303c-0.87,0-1.528,0.067-1.972,0.15L80.881,115.52L80.881,115.52z
				"/>
			<path fill="#00C2C0" d="M93.76,105.512v11.149h-1.682v-11.149C92.079,105.512,93.76,105.512,93.76,105.512z"/>
			<path fill="#00C2C0" d="M99.173,106.735h-3.959v-1.225h9.643v1.225h-3.982v9.924h-1.702L99.173,106.735L99.173,106.735z"/>
			<path fill="#00C2C0" d="M106.966,113.153l-1.354,3.506h-1.74l4.426-11.149h2.03l4.446,11.149h-1.798l-1.392-3.506H106.966z
				 M111.237,112.029l-1.274-3.208c-0.292-0.73-0.484-1.39-0.675-2.034h-0.04c-0.194,0.66-0.406,1.341-0.656,2.017l-1.276,3.226
				L111.237,112.029L111.237,112.029z"/>
			<path fill="#00C2C0" d="M117.677,106.735h-3.962v-1.225h9.643v1.225h-3.982v9.924h-1.702v-9.924H117.677z"/>
			<path fill="#00C2C0" d="M126.497,105.512v11.149h-1.682v-11.149H126.497z"/>
			<path fill="#00C2C0" d="M140.568,110.971c0,3.838-2.724,5.873-6.05,5.873c-3.44,0-5.855-2.282-5.855-5.657
				c0-3.54,2.572-5.855,6.05-5.855C138.27,105.33,140.568,107.664,140.568,110.971z M130.461,111.153
				c0,2.382,1.507,4.517,4.155,4.517c2.668,0,4.176-2.101,4.176-4.631c0-2.215-1.354-4.533-4.155-4.533
				C131.853,106.504,130.461,108.706,130.461,111.153z"/>
			<path fill="#00C2C0" d="M142.759,116.662v-11.149h1.836l4.176,5.641c0.966,1.307,1.72,2.483,2.338,3.622l0.038-0.015
				c-0.154-1.49-0.192-2.846-0.192-4.581v-4.667h1.583v11.149h-1.702l-4.135-5.657c-0.908-1.24-1.778-2.514-2.436-3.721
				l-0.058,0.015c0.098,1.405,0.136,2.746,0.136,4.597v4.764C144.342,116.662,142.759,116.662,142.759,116.662z"/>
		</g>
	</g>
	<path fill="#FFFFFF" d="M80.22,62.679c0.015,0,0.03-0.001,0.044-0.001l0.017,1.108c-0.019,0.013-0.04,0.025-0.059,0.035
		L80.22,62.679z"/>
	<polygon fill="#FFFFFF" points="80.231,63.203 80.269,63.203 80.231,63.297 	"/>
</g>
</svg>
